<svg width="12" height="13" viewBox="0 0 12 13" fill="none" xmlns="http://www.w3.org/2000/svg">
<path d="M7.06127 6.24414L11.7801 1.5251C12.0733 1.23216 12.0733 0.75685 11.7801 0.463911C11.4869 0.170721 11.0122 0.170721 10.719 0.463911L6.00012 5.18296L1.28102 0.463911C0.987847 0.170721 0.51306 0.170721 0.219883 0.463911C-0.0732943 0.75685 -0.0732943 1.23216 0.219883 1.5251L4.93898 6.24414L0.219883 10.9632C-0.0732943 11.2561 -0.0732943 11.7314 0.219883 12.0244C0.366471 12.1707 0.558587 12.244 0.750453 12.244C0.942319 12.244 1.13444 12.1707 1.28102 12.0241L6.00012 7.30508L10.719 12.0241C10.8656 12.1707 11.0577 12.244 11.2495 12.244C11.4414 12.244 11.6335 12.1707 11.7801 12.0241C12.0733 11.7312 12.0733 11.2559 11.7801 10.9629L7.06127 6.24414Z" fill="black"/>
</svg>
